<svg height="512pt" viewBox="-85 0 512 512" width="512pt" xmlns="http://www.w3.org/2000/svg"><path d="m342.664062 70.105469c0-16.605469-13.511718-30.117188-30.121093-30.117188h-54.230469v-29.949219c0-5.542968-4.492188-10.039062-10.039062-10.039062h-155.695313c-5.546875 0-10.042969 4.496094-10.042969 10.039062v29.949219h-52.417968c-16.605469 0-30.117188 13.511719-30.117188 30.117188v411.777343c0 16.605469 13.511719 30.117188 30.117188 30.117188h282.425781c16.609375 0 30.121093-13.511719 30.121093-30.117188v-323.941406c0-5.542968-4.496093-10.039062-10.042968-10.039062-5.542969 0-10.039063 4.496094-10.039063 10.039062v323.941406c0 5.535157-4.503906 10.039063-10.039062 10.039063h-282.425781c-5.535157 0-10.039063-4.503906-10.039063-10.039063v-411.777343c0-5.535157 4.503906-10.039063 10.039063-10.039063h282.425781c5.535156 0 10.039062 4.503906 10.039062 10.039063v8.863281c0 5.542969 4.496094 10.039062 10.039063 10.039062 5.546875 0 10.039062-4.496093 10.039062-10.039062v-8.863281zm-240.046874-30.117188v-19.910156h135.617187v19.910156zm0 0"/><path d="m295.855469 91.210938c0-5.542969-4.492188-10.039063-10.039063-10.039063h-230.785156c-5.542969 0-10.039062 4.496094-10.039062 10.039063v182.566406c0 5.546875 4.496093 10.039062 10.039062 10.039062h230.785156c5.546875 0 10.039063-4.492187 10.039063-10.039062zm-20.078125 172.527343h-210.707032v-162.488281h210.707032zm0 0"/><path d="m169.8125 241.664062c32.625 0 59.167969-26.542968 59.167969-59.167968s-26.542969-59.167969-59.167969-59.167969-59.167969 26.542969-59.167969 59.167969 26.542969 59.167968 59.167969 59.167968zm0-98.257812c21.554688 0 39.089844 17.535156 39.089844 39.089844 0 21.554687-17.535156 39.089844-39.089844 39.089844s-39.089844-17.535157-39.089844-39.089844c0-21.554688 17.535156-39.089844 39.089844-39.089844zm0 0"/><path d="m153.113281 203.519531c1.84375 1.945313 4.386719 3.074219 7.066407 3.136719h.226562c2.597656 0 5.097656-1.007812 6.972656-2.8125l24.367188-23.515625c3.992187-3.847656 4.105468-10.207031.253906-14.195313-3.851562-3.992187-10.207031-4.105468-14.195312-.253906l-17.074219 16.476563-2.605469-2.75c-3.808594-4.023438-10.164062-4.199219-14.191406-.386719s-4.199219 10.164062-.390625 14.191406zm0 0"/><path d="m171.152344 432.261719c.027344 0 .046875-.003907.074218-.003907.035157 0 .066407.003907.101563.003907 41.507813 0 76.292969-23.304688 85.964844-30.445313 3.230469-2.386718 5.160156-6.207031 5.160156-10.21875 0-4.015625-1.929687-7.835937-5.160156-10.222656-9.671875-7.140625-44.457031-30.441406-85.964844-30.441406-.035156 0-.070313 0-.101563 0-.027343 0-.046874 0-.074218 0-.125 0-.25.007812-.378906.007812-41.257813.207032-75.777344 23.324219-85.40625 30.4375-3.230469 2.382813-5.160157 6.203125-5.160157 10.21875 0 4.011719 1.929688 7.832032 5.160157 10.21875 9.628906 7.109375 44.148437 30.226563 85.410156 30.433594.125 0 .25.011719.375.011719zm-20.582032-40.664063c0-11.328125 9.199219-20.546875 20.519532-20.582031.03125 0 .066406-.003906.101562-.003906 11.335938.023437 20.546875 9.246093 20.546875 20.585937s-9.210937 20.5625-20.546875 20.582032c-.035156 0-.070312 0-.101562 0-11.320313-.039063-20.519532-9.253907-20.519532-20.582032zm59.007813 13.289063c1.445313-4.167969 2.242187-8.636719 2.242187-13.289063 0-4.65625-.796874-9.125-2.242187-13.289062 11.023437 4.074218 20.339844 9.144531 27 13.289062-6.660156 4.140625-15.976563 9.210938-27 13.289063zm-76.898437-26.429688c-1.414063 4.125-2.1875 8.542969-2.1875 13.136719 0 4.597656.777343 9.015625 2.1875 13.140625-10.847657-4.050781-20.019532-9.046875-26.597657-13.140625 6.578125-4.089844 15.75-9.085938 26.597657-13.136719zm0 0"/><path d="m44.992188 336.945312c0 5.546876 4.496093 10.039063 10.039062 10.039063 5.546875 0 10.039062-4.492187 10.039062-10.039063v-18.097656h19.621094c5.542969 0 10.039063-4.496094 10.039063-10.039062 0-5.546875-4.496094-10.039063-10.039063-10.039063h-29.660156c-5.542969 0-10.039062 4.492188-10.039062 10.039063zm0 0"/><path d="m285.816406 346.984375c5.546875 0 10.039063-4.492187 10.039063-10.039063v-28.136718c0-5.546875-4.492188-10.039063-10.039063-10.039063h-29.65625c-5.546875 0-10.039062 4.492188-10.039062 10.039063 0 5.542968 4.492187 10.039062 10.039062 10.039062h19.617188v18.097656c0 5.546876 4.496094 10.039063 10.039062 10.039063zm0 0"/><path d="m55.03125 477.285156h29.660156c5.542969 0 10.039063-4.492187 10.039063-10.039062 0-5.542969-4.496094-10.039063-10.039063-10.039063h-19.621094v-18.097656c0-5.546875-4.492187-10.039063-10.039062-10.039063-5.542969 0-10.039062 4.492188-10.039062 10.039063v28.136719c0 5.546875 4.496093 10.039062 10.039062 10.039062zm0 0"/><path d="m256.160156 477.285156h29.65625c5.546875 0 10.039063-4.492187 10.039063-10.039062v-28.136719c0-5.546875-4.492188-10.039063-10.039063-10.039063-5.542968 0-10.039062 4.492188-10.039062 10.039063v18.097656h-19.617188c-5.546875 0-10.039062 4.496094-10.039062 10.039063 0 5.546875 4.492187 10.039062 10.039062 10.039062zm0 0"/><path d="m121.03125 299.421875c-5.136719 2.082031-7.617188 7.933594-5.535156 13.074219l.0625.160156c1.582031 3.902344 5.339844 6.273438 9.308594 6.273438 1.257812 0 2.53125-.238282 3.765624-.738282 5.140626-2.078125 7.617188-7.933594 5.539063-13.070312l-.066406-.160156c-2.082031-5.140626-7.933594-7.617188-13.074219-5.539063zm0 0"/><path d="m327.941406 109.3125c-5.144531 2.070312-7.640625 7.914062-5.570312 13.058594l.0625.160156c1.574218 3.917969 5.339844 6.300781 9.320312 6.300781 1.246094 0 2.511719-.234375 3.738282-.726562 5.144531-2.070313 7.640624-7.914063 5.570312-13.058594l-.0625-.160156c-2.066406-5.144531-7.914062-7.640625-13.058594-5.574219zm0 0"/><path d="m44.863281 400.226562c0 5.546876 4.496094 10.039063 10.039063 10.039063 5.546875 0 10.039062-4.492187 10.039062-10.039063v-24.09375c0-5.546874-4.492187-10.039062-10.039062-10.039062-5.542969 0-10.039063 4.492188-10.039063 10.039062zm0 0"/><path d="m296.847656 376.132812c0-5.546874-4.496094-10.039062-10.039062-10.039062-5.546875 0-10.042969 4.492188-10.042969 10.039062v24.09375c0 5.546876 4.496094 10.039063 10.042969 10.039063 5.542968 0 10.039062-4.492187 10.039062-10.039063zm0 0"/></svg>