<?xml version="1.0" encoding="iso-8859-1"?>
<!-- Generator: Adobe Illustrator 18.0.0, SVG Export Plug-In . SVG Version: 6.00 Build 0)  -->
<!DOCTYPE svg PUBLIC "-//W3C//DTD SVG 1.1//EN" "http://www.w3.org/Graphics/SVG/1.1/DTD/svg11.dtd">
<svg version="1.1" id="Capa_1" xmlns="http://www.w3.org/2000/svg" xmlns:xlink="http://www.w3.org/1999/xlink" x="0px" y="0px"
	 viewBox="0 0 424.069 424.069" style="enable-background:new 0 0 424.069 424.069;" xml:space="preserve">
<g>
	<path d="M72.366,225.953c1.002,0,1.955-0.429,2.619-1.178c1.926-2.173,47.171-53.506,47.171-80.094
		c0-27.454-22.336-49.79-49.79-49.79s-49.79,22.336-49.79,49.79c0,26.588,45.245,77.921,47.171,80.094
		C70.411,225.525,71.364,225.953,72.366,225.953z M43.866,142.778c0-15.715,12.785-28.501,28.5-28.501
		c15.715,0,28.5,12.786,28.5,28.501c0,15.715-12.785,28.5-28.5,28.5C56.651,171.278,43.866,158.492,43.866,142.778z"/>
	<path d="M74.303,155.508l12-16.676c0.523-0.727,0.595-1.686,0.187-2.482c-0.408-0.797-1.229-1.298-2.124-1.298h-24
		c-0.896,0-1.716,0.501-2.124,1.298c-0.408,0.797-0.336,1.755,0.187,2.482l12,16.676c0.448,0.623,1.17,0.993,1.937,0.993
		C73.133,156.501,73.855,156.132,74.303,155.508z"/>
	<path d="M338.819,218.331c0.77,0,1.503-0.33,2.014-0.906c1.481-1.67,36.271-41.142,36.271-61.586
		c0-21.11-17.175-38.285-38.285-38.285c-21.11,0-38.285,17.175-38.285,38.285c0,20.444,34.79,59.916,36.271,61.586
		C337.316,218.001,338.049,218.331,338.819,218.331z M316.904,154.374c0-12.084,9.831-21.915,21.915-21.915
		s21.914,9.831,21.914,21.915c0,12.084-9.831,21.915-21.914,21.915S316.904,166.458,316.904,154.374z"/>
	<path d="M424.068,216.409c0.016-1.422-0.83-2.712-2.14-3.265l-49.412-20.846c-1.242,1.919-2.575,3.896-3.98,5.918l5.698,2.404
		l-10.356,4.096c-3.04,4.107-5.948,7.808-8.422,10.859l27.988-11.07l27.871,11.759l-37.192,14.711l-23.291-9.826
		c-1.333,1.566-2.239,2.595-2.517,2.909c-0.845,0.953-1.826,1.755-2.893,2.405l19.407,8.188l-34.981,13.836l-27.872-11.759
		l28.72-11.359c-0.484-0.404-0.951-0.832-1.374-1.31c-0.351-0.395-1.686-1.913-3.639-4.236l-32.917,13.02l-29.824-12.583
		l34.981-13.835l25.603,10.801c-2.512-3.056-5.615-6.949-8.912-11.356l-7.397-3.121l3.965-1.568
		c-0.416-0.581-0.832-1.163-1.249-1.755c-0.993-1.412-1.933-2.79-2.848-4.152l-9.077,3.59l-29.825-12.583l27.482-10.87
		c-1.028-2.256-1.901-4.42-2.618-6.493l-34.074,13.478l-29.825-12.583l37.193-14.71l25.78,10.876
		c-0.838-2.935-1.353-5.683-1.52-8.238l-22.82-9.628c-0.004-0.001-0.008-0.003-0.013-0.005l-37.105-15.654
		c-0.844-0.357-1.795-0.367-2.648-0.03l-104.63,41.383c-1.571,3.081-3.343,6.288-5.344,9.641l20.458-8.091l27.872,11.759
		l-34.98,13.835l-19.272-8.131c-1.278,1.929-2.611,3.893-4.015,5.903l13.994,5.903l-25.984,10.278
		c-3.506,4.478-6.644,8.295-9.035,11.139l29.78,12.563l-37.191,14.71l-29.827-12.584l16.162-6.392
		c-1.394-0.746-2.668-1.724-3.739-2.931c-0.267-0.301-0.974-1.104-2.021-2.319l-19.612,7.757l-27.873-11.76l33.486-13.244
		c-1.42-1.851-2.883-3.789-4.368-5.8L2.22,221.728c-1.322,0.523-2.197,1.794-2.213,3.215c-0.016,1.422,0,22.404,0,22.404
		l193.405,81.555c0.435,0.184,0.898,0.275,1.36,0.275c0.437,0,0.874-0.082,1.287-0.245l228.009-91.398
		C424.068,237.534,424.052,217.83,424.068,216.409z M283.473,236.519l-34.979,13.835l-29.823-12.582l34.979-13.835L283.473,236.519z
		 M200.167,237.562l-34.981,13.836l-29.824-12.582l34.98-13.836L200.167,237.562z M179.636,221.303l34.979-13.835l29.824,12.583
		l-34.979,13.835L179.636,221.303z M209.377,241.447l29.823,12.582l-34.981,13.836l-29.823-12.582L209.377,241.447z
		 M288.715,202.539l-34.981,13.835l-29.824-12.582l34.98-13.836L288.715,202.539z M249.68,186.07l-34.98,13.836l-29.825-12.583
		l34.98-13.835L249.68,186.07z M229.262,139.458l27.871,11.758l-37.192,14.71l-27.871-11.758L229.262,139.458z M147.795,171.679
		l34.98-13.835l27.871,11.759l-34.98,13.835L147.795,171.679z M175.582,190.999l29.825,12.583l-34.979,13.836l-29.826-12.583
		L175.582,190.999z M96.327,222.346l34.98-13.835l29.826,12.583l-34.98,13.836L96.327,222.346z M88.878,257.201l37.191-14.71
		l29.824,12.582l-37.191,14.711L88.878,257.201z M127.91,273.669l37.191-14.71l29.823,12.582l-37.192,14.71L127.91,273.669z
		 M194.815,301.897l-27.874-11.76l37.192-14.71l27.873,11.76L194.815,301.897z M241.3,283.511l-27.872-11.76l34.981-13.836
		l27.873,11.759L241.3,283.511z M285.576,265.998l-27.872-11.759l34.979-13.835l27.872,11.759L285.576,265.998z"/>
	<path d="M340.309,164.164l9.227-12.822c0.402-0.559,0.458-1.296,0.144-1.909c-0.314-0.613-0.945-0.998-1.633-0.998h-18.454
		c-0.688,0-1.319,0.385-1.633,0.998c-0.314,0.613-0.258,1.35,0.144,1.909l9.227,12.822c0.345,0.479,0.899,0.763,1.49,0.763
		C339.409,164.927,339.963,164.643,340.309,164.164z"/>
</g>
<g>
</g>
<g>
</g>
<g>
</g>
<g>
</g>
<g>
</g>
<g>
</g>
<g>
</g>
<g>
</g>
<g>
</g>
<g>
</g>
<g>
</g>
<g>
</g>
<g>
</g>
<g>
</g>
<g>
</g>
</svg>
