<svg height="512pt" viewBox="0 -18 512 512" width="512pt" xmlns="http://www.w3.org/2000/svg"><path d="m40.597656 118.695312c3.128906-2.714843 3.464844-7.449218.753906-10.582031-6.6875-7.710937-10.21875-16.84375-10.21875-26.410156 0-24.726563 23.839844-44.84375 53.144532-44.84375 29.300781 0 53.140625 20.117187 53.140625 44.84375 0 9.199219-3.304688 18.058594-9.5625 25.613281-.773438.9375-1.3125 2.050782-1.5625 3.242188-1.847657 8.808594-2.164063 16.910156-.949219 24.160156-4.417969-2.027344-7.621094-4.902344-10.28125-9.113281-1.90625-3.019531-5.675781-4.277344-9.011719-3.003907-6.886719 2.621094-14.210937 3.949219-21.773437 3.949219-5.863282 0-11.621094-.804687-17.113282-2.382812-3.980468-1.148438-8.136718 1.152343-9.28125 5.132812-1.148437 3.980469 1.152344 8.136719 5.132813 9.28125 6.839844 1.96875 13.996094 2.96875 21.261719 2.96875 7.425781 0 14.6875-1.039062 21.648437-3.089843 5.03125 5.921874 11.445313 9.898437 19.796875 12.339843 1.128906.332031 2.285156.492188 3.429688.492188 3.199218 0 6.328125-1.257813 8.660156-3.582031 3.148438-3.136719 4.339844-7.722657 3.113281-11.972657-1.992187-6.910156-1.347656-14.628906-.289062-20.386719 7.714843-9.949218 11.78125-21.539062 11.78125-33.648437 0-33-30.570313-59.847656-68.144531-59.847656-37.574219 0-68.140626 26.847656-68.140626 59.847656 0 13.226563 4.800782 25.753906 13.882813 36.234375 2.710937 3.128906 7.449219 3.46875 10.582031.757812zm43.375 261.761719c-4.132812.285157-7.25 3.863281-6.96875 7.996094.0625.890625-.054687 2.605469-1.519531 4.070313-1.460937 1.460937-3.175781 1.582031-4.066406 1.515624-4.125-.285156-7.714844 2.835938-7.996094 6.96875-.285156 4.132813 2.832031 7.714844 6.964844 8 .464843.03125.929687.046876 1.394531.046876 5.351562 0 10.503906-2.117188 14.3125-5.925782 4.136719-4.136718 6.277344-9.859375 5.875-15.703125-.285156-4.132812-3.871094-7.25-7.996094-6.96875zm370.5625-335.804687h-75.234375c-4.144531 0-7.5 3.355468-7.5 7.5 0 4.144531 3.355469 7.5 7.5 7.5h75.234375c4.144532 0 7.5-3.355469 7.5-7.5 0-4.144532-3.355468-7.5-7.5-7.5zm-343.882812 44.550781c4.140625 0 7.5-3.355469 7.5-7.5s-3.359375-7.5-7.5-7.5h-52.753906c-4.140626 0-7.5 3.355469-7.5 7.5s3.359374 7.5 7.5 7.5zm-57.882813 321.523437c-2.929687-2.929687-7.675781-2.929687-10.605469 0-2.929687 2.925782-2.929687 7.675782-.003906 10.605469l4.277344 4.277344c1.464844 1.464844 3.382812 2.195313 5.304688 2.195313 1.917968 0 3.835937-.730469 5.304687-2.195313 2.925781-2.929687 2.929687-7.675781 0-10.605469zm240.910157-200.460937h-68.4375c-4.140626 0-7.5 3.355469-7.5 7.5v68.4375c0 4.140625 3.359374 7.5 7.5 7.5h68.4375c4.140624 0 7.5-3.359375 7.5-7.5v-68.4375c0-4.144531-3.359376-7.5-7.5-7.5zm-7.5 68.433594h-53.4375v-53.433594h53.4375zm195.976562-278.699219h-130.476562c-16.453126 0-29.84375 13.386719-29.84375 29.84375v11.960938c-1.027344-.097657-2.066407-.15625-3.109376-.15625-17.949218 0-32.546874 14.597656-32.546874 32.546874v85.980469h-53.4375v-85.980469c0-17.949218-14.597657-32.546874-32.542969-32.546874-17.945313 0-32.546875 14.597656-32.546875 32.546874v85.980469h-85.980469c-17.945313 0-32.546875 14.597657-32.546875 32.546875 0 17.945313 14.601562 32.542969 32.546875 32.542969h85.980469v53.4375h-85.980469c-17.945313 0-32.546875 14.601563-32.546875 32.546875 0 3.8125.660156 7.511719 1.914062 11-29.804687 11.398438-51.039062 40.28125-51.039062 74.050781 0 43.707031 35.558594 79.261719 79.261719 79.261719 43.707031 0 79.265625-35.554688 79.265625-79.261719 0-20.125-7.554688-38.515625-19.957032-52.507812h29.082032v85.980469c0 17.945312 14.601562 32.542968 32.546875 32.542968 17.945312 0 32.542969-14.597656 32.542969-32.542968v-85.980469h53.4375v85.980469c0 17.945312 14.597656 32.542968 32.546874 32.542968 17.945313 0 32.542969-14.597656 32.542969-32.542968v-85.980469h16.957031c-.191406 2.007812-.289062 4.015625-.289062 6.027343 0 35.640626 28.996094 64.632813 64.636719 64.632813 4.304687 0 8.609375-.425781 12.796875-1.265625 4.0625-.816406 6.691406-4.773438 5.875-8.832031-.816406-4.058594-4.765625-6.691407-8.832032-5.875-3.214843.648437-6.523437.972656-9.839843.972656-27.371094 0-49.636719-22.265625-49.636719-49.632813 0-2.011718.128906-4.023437.375-6.027343h19.132812c-.390624 1.96875-.613281 3.984375-.613281 6.027343 0 16.949219 13.789063 30.738282 30.738281 30.738282 16.953126 0 30.742188-13.789063 30.742188-30.738282 0-5.28125-1.328125-10.351562-3.816406-14.847656 5.121094-4.804687 8.691406-11.238281 9.871094-18.46875 8.140624 8.980469 12.839843 20.773438 12.839843 33.316406 0 12.253907-4.503906 24.019532-12.675781 33.132813-2.765625 3.082031-2.507812 7.824219.574219 10.589844 1.433593 1.285156 3.222656 1.917969 5.003906 1.917969 2.058594 0 4.105469-.84375 5.585937-2.492188 10.648438-11.867188 16.511719-27.191406 16.511719-43.148438 0-23.285156-12.421875-44.589843-32.5625-56.109374-5.792969-9.019532-15.902343-15.011719-27.394531-15.011719h-85.980469v-53.433594h85.980469c17.945312 0 32.546875-14.601563 32.546875-32.546875s-14.601563-32.546875-32.546875-32.546875h-85.980469v-55.878906c.136719.003906.273438.011719.410157.011719 2.125 0 3.859374 1.6875 3.953124 3.84375.335938 7.710937-.386718 14.742187-2.152343 20.902343-1.515625 5.289063-.035157 10.976563 3.859375 14.851563 2.867187 2.851562 6.710937 4.386718 10.648437 4.386718 1.417969 0 2.847657-.199218 4.25-.609374 20.40625-5.96875 32.855469-17.609376 41.628907-38.925782 1.113281-2.703125 3.703124-4.449218 6.601562-4.449218h61.6875c16.457031 0 29.84375-13.390626 29.84375-29.84375v-44.617188c0-16.457031-13.386719-29.84375-29.84375-29.84375zm-338.628906 396.300781c0 35.433594-28.828125 64.261719-64.265625 64.261719-35.433594 0-64.261719-28.828125-64.261719-64.261719 0-35.4375 28.828125-64.265625 64.261719-64.265625 35.4375 0 64.265625 28.828125 64.265625 64.265625zm289.042968-30.738281c-8.675781 0-15.738281-7.0625-15.738281-15.742188 0-2.09375.410157-4.128906 1.203125-6.027343h19.214844c3.207031 0 6.304688-.472657 9.234375-1.339844 1.191406 2.242187 1.828125 4.757813 1.828125 7.371094 0 8.675781-7.0625 15.738281-15.742188 15.738281zm4.679688-190.386719c9.675781 0 17.546875 7.871094 17.546875 17.542969 0 9.675781-7.871094 17.546875-17.546875 17.546875h-93.480469c-4.140625 0-7.5 3.355469-7.5 7.5v68.4375c0 4.140625 3.359375 7.5 7.5 7.5h93.480469c9.675781 0 17.546875 7.871094 17.546875 17.542969 0 9.675781-7.871094 17.546875-17.546875 17.546875h-93.480469c-4.140625 0-7.5 3.359375-7.5 7.5v93.480469c0 9.675781-7.871093 17.546874-17.542969 17.546874-9.675781 0-17.546874-7.871093-17.546874-17.546874v-93.480469c0-4.140625-3.359376-7.5-7.5-7.5h-68.4375c-4.140626 0-7.5 3.359375-7.5 7.5v93.480469c0 9.675781-7.871094 17.546874-17.542969 17.546874-9.675781 0-17.546875-7.871093-17.546875-17.546874v-93.480469c0-4.140625-3.359375-7.5-7.5-7.5h-54.40625c-12.074219-7.445313-26.285156-11.753907-41.484375-11.753907-4.667969 0-9.234375.429688-13.683594 1.207032-.957031-2.1875-1.453125-4.550782-1.453125-7 0-9.671875 7.871094-17.542969 17.546875-17.542969h93.480469c4.140625 0 7.5-3.359375 7.5-7.5v-68.4375c0-4.144531-3.359375-7.5-7.5-7.5h-93.480469c-9.675781 0-17.546875-7.871094-17.546875-17.546875 0-9.671875 7.871094-17.542969 17.546875-17.542969h93.480469c4.140625 0 7.5-3.359375 7.5-7.5v-93.480469c0-9.675781 7.871094-17.546874 17.546875-17.546874 9.671875 0 17.542969 7.871093 17.542969 17.546874v93.480469c0 4.140625 3.359374 7.5 7.5 7.5h68.4375c4.140624 0 7.5-3.359375 7.5-7.5v-93.480469c0-9.675781 7.871093-17.546874 17.546874-17.546874 1.054688 0 2.089844.117187 3.109376.296874v17.515626c0 10.820312 5.792968 20.3125 14.433593 25.546874v67.667969c0 4.140625 3.359375 7.5 7.5 7.5zm59.75-100.714843c0 8.183593-6.65625 14.84375-14.84375 14.84375h-61.6875c-8.996094 0-17.03125 5.390624-20.472656 13.738281-7.03125 17.089843-15.996094 25.566406-32.027344 30.257812-.027344-.007812-.074219-.054687-.066406-.121093 2.210937-7.714844 3.125-16.355469 2.714844-25.683594-.441407-10.199219-8.761719-18.191406-18.9375-18.191406-8.183594 0-14.84375-6.660157-14.84375-14.84375v-44.617188c0-8.1875 6.660156-14.84375 14.84375-14.84375h130.476562c8.1875 0 14.84375 6.65625 14.84375 14.84375zm-392.703125 284.738281c-2.929687-2.929688-7.679687-2.929688-10.609375 0-2.925781 2.929687-2.925781 7.679687 0 10.605469l4.277344 4.277343c1.464844 1.464844 3.382812 2.195313 5.304687 2.195313 1.917969 0 3.835938-.730469 5.300781-2.195313 2.929688-2.929687 2.929688-7.679687 0-10.605469zm0 0"/></svg>