<?xml version="1.0" encoding="UTF-8" standalone="no"?> <svg width="64" height="64" viewBox="0 0 64 64" fill="none" xmlns="http://www.w3.org/2000/svg">
<path d="M60 36.75H55.25V30C55.2474 28.8736 54.7987 27.7942 54.0023 26.9977C53.2058 26.2013 52.1264 25.7526 51 25.75H33.25V17.25H38C38.3315 17.25 38.6495 17.1183 38.8839 16.8839C39.1183 16.6495 39.25 16.3315 39.25 16V4C39.25 3.66848 39.1183 3.35054 38.8839 3.11612C38.6495 2.8817 38.3315 2.75 38 2.75H26C25.6685 2.75 25.3505 2.8817 25.1161 3.11612C24.8817 3.35054 24.75 3.66848 24.75 4V16C24.75 16.3315 24.8817 16.6495 25.1161 16.8839C25.3505 17.1183 25.6685 17.25 26 17.25H30.75V25.75H13C11.8736 25.7526 10.7942 26.2013 9.99771 26.9977C9.20126 27.7942 8.75264 28.8736 8.75 30V36.75H4C3.66848 36.75 3.35054 36.8817 3.11612 37.1161C2.8817 37.3505 2.75 37.6685 2.75 38V56C2.75 56.3315 2.8817 56.6495 3.11612 56.8839C3.35054 57.1183 3.66848 57.25 4 57.25H16C16.3315 57.25 16.6495 57.1183 16.8839 56.8839C17.1183 56.6495 17.25 56.3315 17.25 56V38C17.25 37.6685 17.1183 37.3505 16.8839 37.1161C16.6495 36.8817 16.3315 36.75 16 36.75H11.25V30C11.2526 29.5367 11.4378 29.0931 11.7655 28.7655C12.0931 28.4378 12.5367 28.2526 13 28.25H30.75V36.75H26C25.6685 36.75 25.3505 36.8817 25.1161 37.1161C24.8817 37.3505 24.75 37.6685 24.75 38V56C24.75 56.3315 24.8817 56.6495 25.1161 56.8839C25.3505 57.1183 25.6685 57.25 26 57.25H38C38.3315 57.25 38.6495 57.1183 38.8839 56.8839C39.1183 56.6495 39.25 56.3315 39.25 56V38C39.25 37.6685 39.1183 37.3505 38.8839 37.1161C38.6495 36.8817 38.3315 36.75 38 36.75H33.25V28.25H51C51.4633 28.2526 51.9069 28.4378 52.2345 28.7655C52.5622 29.0931 52.7474 29.5367 52.75 30V36.75H48C47.6685 36.75 47.3505 36.8817 47.1161 37.1161C46.8817 37.3505 46.75 37.6685 46.75 38V56C46.75 56.3315 46.8817 56.6495 47.1161 56.8839C47.3505 57.1183 47.6685 57.25 48 57.25H60C60.3315 57.25 60.6495 57.1183 60.8839 56.8839C61.1183 56.6495 61.25 56.3315 61.25 56V38C61.25 37.6685 61.1183 37.3505 60.8839 37.1161C60.6495 36.8817 60.3315 36.75 60 36.75V36.75ZM27.25 5.25H36.75V14.75H27.25V5.25ZM14.75 54.75H5.25V39.25H14.75V54.75ZM36.75 54.75H27.25V39.25H36.75V54.75ZM58.75 54.75H49.25V39.25H58.75V54.75Z" fill="black"/>
</svg>
