<svg height="512pt" viewBox="0 0 512 512" width="512pt" xmlns="http://www.w3.org/2000/svg"><path d="m486.398438 0h-460.796876c-14.140624 0-25.601562 11.460938-25.601562 25.601562v460.796876c0 14.140624 11.460938 25.601562 25.601562 25.601562h460.796876c14.140624 0 25.601562-11.460938 25.601562-25.601562v-460.796876c0-14.140624-11.460938-25.601562-25.601562-25.601562zm-469.332032 25.601562c0-4.714843 3.820313-8.535156 8.535156-8.535156h460.796876c4.714843 0 8.535156 3.820313 8.535156 8.535156v42.664063h-477.867188zm349.867188 469.332032v-102.398438h17.066406v102.398438zm-51.199219-218.605469-17.066406 8.53125v-40.652344l17.066406 8.535157zm0 19.078125v6.519531l-6.519531-3.257812zm0-61.746094-6.519531-3.261718 6.519531-3.257813zm0-25.601562-17.066406 8.535156v-40.652344l17.066406 8.53125zm-17.066406 104.414062 17.066406 8.535156v23.585938l-17.066406 8.53125zm34.132812 37.394532v-187.734376c0-4.710937 3.820313-8.53125 8.53125-8.53125h68.269531c4.710938 0 8.53125 3.820313 8.53125 8.53125v204.800782c0 4.710937-3.820312 8.53125-8.53125 8.53125h-68.269531c-4.710937 0-8.53125-3.820313-8.53125-8.53125zm102.398438-97.125 17.066406-8.535157v40.652344l-17.066406-8.53125zm0-19.082032v-6.519531l6.519531 3.257813zm0 61.746094 6.519531 3.261719-6.519531 3.257812zm0 25.601562 17.066406-8.535156v40.652344l-17.066406-8.53125zm17.066406-104.414062-17.066406-8.535156v-23.585938l17.066406-8.53125zm-51.199219-80.058594h-51.199218v-8.535156c0-4.710938 3.820312-8.535156 8.53125-8.535156h34.136718c4.710938 0 8.53125 3.824218 8.53125 8.535156zm93.867188 349.863282c0 4.714843-3.820313 8.535156-8.535156 8.535156h-85.332032v-102.398438h8.535156c14.136719 0 25.597657-11.464844 25.597657-25.601562v-3.261719l9.4375 4.71875c5.292969 2.644531 11.574219 2.363281 16.605469-.746094 5.027343-3.113281 8.089843-8.605469 8.089843-14.519531v-40.652344c-.007812-5.503906-2.703125-10.65625-7.21875-13.804687 4.515625-3.148438 7.210938-8.304688 7.21875-13.808594v-40.652344c-.007812-5.503906-2.703125-10.65625-7.21875-13.808593 4.515625-3.148438 7.210938-8.300782 7.21875-13.804688v-40.652344c.011719-5.929687-3.058593-11.4375-8.105469-14.550781-5.046874-3.113281-11.34375-3.382813-16.640624-.714844l-9.386719 4.71875v-3.261719c-.042969-10.808593-6.875-20.425781-17.066407-24.03125v-10.101562c0-14.136719-11.460937-25.601562-25.597656-25.601562h-34.136718c-14.136719 0-25.597657 11.464843-25.597657 25.601562v10.101562c-10.191406 3.605469-17.023437 13.222657-17.066406 24.03125v3.261719l-9.4375-4.71875c-5.292969-2.644531-11.574219-2.363281-16.605469.75-5.027344 3.109375-8.089844 8.601563-8.089844 14.515625v40.652344c.007813 5.503906 2.703126 10.65625 7.21875 13.804688-4.515624 3.152343-7.210937 8.304687-7.21875 13.808593v40.652344c.007813 5.503906 2.703126 10.660156 7.21875 13.808594-4.515624 3.148437-7.210937 8.300781-7.21875 13.804687v40.652344c0 9.425781 7.640626 17.066406 17.066407 17.066406 2.664062 0 5.296875-.621094 7.679687-1.816406l9.386719-4.71875v3.277344c0 14.136718 11.460937 25.601562 25.597656 25.601562h8.535157v102.398438h-324.265626c-4.714843 0-8.535156-3.820313-8.535156-8.535156v-42.664063h298.667969c4.710937 0 8.53125-3.820313 8.53125-8.535156 0-4.710938-3.820313-8.53125-8.53125-8.53125h-298.667969v-341.335938h477.867188v341.335938h-59.734375c-4.710938 0-8.53125 3.820312-8.53125 8.53125 0 4.714843 3.820312 8.535156 8.53125 8.535156h59.734375zm0 0"/><path d="m51.199219 42.667969c0 4.710937-3.820313 8.53125-8.53125 8.53125-4.714844 0-8.535157-3.820313-8.535157-8.53125 0-4.714844 3.820313-8.535157 8.535157-8.535157 4.710937 0 8.53125 3.820313 8.53125 8.535157zm0 0"/><path d="m85.332031 42.667969c0 4.710937-3.820312 8.53125-8.53125 8.53125-4.714843 0-8.535156-3.820313-8.535156-8.53125 0-4.714844 3.820313-8.535157 8.535156-8.535157 4.710938 0 8.53125 3.820313 8.53125 8.535157zm0 0"/><path d="m119.464844 42.667969c0 4.710937-3.820313 8.53125-8.53125 8.53125-4.714844 0-8.535156-3.820313-8.535156-8.53125 0-4.714844 3.820312-8.535157 8.535156-8.535157 4.710937 0 8.53125 3.820313 8.53125 8.535157zm0 0"/><path d="m76.800781 290.132812c0 4.714844-3.820312 8.535157-8.535156 8.535157-4.710937 0-8.53125-3.820313-8.53125-8.535157 0-4.710937 3.820313-8.53125 8.53125-8.53125 4.714844 0 8.535156 3.820313 8.535156 8.53125zm0 0"/><path d="m68.265625 196.265625c-14.460937.015625-27.351563 9.128906-32.1875 22.757813-1.570313 4.445312.761719 9.320312 5.207031 10.890624 4.441406 1.570313 9.316406-.761718 10.886719-5.207031 2.894531-8.179687 11.46875-12.886719 19.925781-10.9375 8.457032 1.949219 14.101563 9.933594 13.121094 18.558594-.980469 8.621094-8.273438 15.136719-16.953125 15.136719-4.710937 0-8.53125 3.824218-8.53125 8.535156v8.535156c0 4.710938 3.820313 8.53125 8.53125 8.53125 4.714844 0 8.535156-3.820312 8.535156-8.53125v-1.085937c16.640625-4.296875 27.492188-20.296875 25.328125-37.351563-2.167968-17.050781-16.671875-29.832031-33.863281-29.832031zm0 0"/><path d="m179.199219 401.066406c0 4.714844-3.820313 8.535156-8.53125 8.535156-4.714844 0-8.535157-3.820312-8.535157-8.535156 0-4.710937 3.820313-8.53125 8.535157-8.53125 4.710937 0 8.53125 3.820313 8.53125 8.53125zm0 0"/><path d="m170.667969 307.199219c-14.464844.015625-27.355469 9.128906-32.1875 22.757812-1.015625 2.875-.421875 6.074219 1.5625 8.390625 1.980469 2.316406 5.046875 3.398438 8.046875 2.84375 2.996094-.558594 5.46875-2.675781 6.484375-5.550781 2.894531-8.179687 11.464843-12.886719 19.921875-10.9375 8.457031 1.949219 14.105468 9.933594 13.125 18.558594-.980469 8.621093-8.277344 15.136719-16.953125 15.136719-4.714844 0-8.535157 3.820312-8.535157 8.535156v8.53125c0 4.714844 3.820313 8.535156 8.535157 8.535156 4.710937 0 8.53125-3.820312 8.53125-8.535156v-1.082032c16.644531-4.296874 27.496093-20.296874 25.328125-37.351562-2.164063-17.050781-16.671875-29.832031-33.859375-29.832031zm0 0"/><path d="m187.734375 196.265625c0 4.714844-3.820313 8.535156-8.535156 8.535156-4.710938 0-8.53125-3.820312-8.53125-8.535156 0-4.710937 3.820312-8.53125 8.53125-8.53125 4.714843 0 8.535156 3.820313 8.535156 8.53125zm0 0"/><path d="m152.21875 136.046875c2.132812.753906 4.480469.628906 6.519531-.347656 2.042969-.976563 3.613281-2.722657 4.367188-4.859375 2.894531-8.179688 11.46875-12.886719 19.925781-10.9375 8.457031 1.949218 14.101562 9.9375 13.121094 18.558594-.980469 8.621093-8.273438 15.136718-16.953125 15.140624-4.710938 0-8.53125 3.820313-8.53125 8.53125v8.535157c0 4.710937 3.820312 8.53125 8.53125 8.53125 4.714843 0 8.535156-3.820313 8.535156-8.53125v-1.085938c15.75-4.070312 26.441406-18.691406 25.539063-34.933593-.898438-16.242188-13.136719-29.59375-29.242188-31.902344-16.101562-2.304688-31.597656 7.074218-37.019531 22.414062-.753907 2.132813-.628907 4.480469.347656 6.519532.976563 2.042968 2.722656 3.613281 4.859375 4.367187zm0 0"/><path d="m244.964844 121.96875c-3.347656-3.234375-8.667969-3.191406-11.960938.101562-3.292968 3.292969-3.335937 8.613282-.105468 11.960938l17.070312 17.070312c3.347656 3.230469 8.667969 3.1875 11.960938-.105468 3.292968-3.292969 3.335937-8.613282.101562-11.960938zm0 0"/><path d="m221.867188 196.265625h17.066406c4.710937 0 8.53125-3.820313 8.53125-8.53125 0-4.714844-3.820313-8.535156-8.53125-8.535156h-17.066406c-4.714844 0-8.535157 3.820312-8.535157 8.535156 0 4.710937 3.820313 8.53125 8.535157 8.53125zm0 0"/><path d="m244.964844 232.898438c-3.347656-3.230469-8.667969-3.1875-11.960938.105468-3.292968 3.292969-3.335937 8.613282-.105468 11.960938l17.070312 17.066406c3.347656 3.234375 8.667969 3.191406 11.960938-.101562 3.292968-3.292969 3.335937-8.613282.101562-11.960938zm0 0"/><path d="m238.933594 290.132812h-17.066406c-4.714844 0-8.535157 3.820313-8.535157 8.535157 0 4.710937 3.820313 8.53125 8.535157 8.53125h17.066406c4.710937 0 8.53125-3.820313 8.53125-8.53125 0-4.714844-3.820313-8.535157-8.53125-8.535157zm0 0"/><path d="m375.464844 221.867188c14.140625 0 25.601562-11.460938 25.601562-25.601563 0-14.136719-11.460937-25.597656-25.601562-25.597656-14.136719 0-25.597656 11.460937-25.597656 25.597656 0 14.140625 11.460937 25.601563 25.597656 25.601563zm0-34.132813c4.714844 0 8.535156 3.820313 8.535156 8.53125 0 4.714844-3.820312 8.535156-8.535156 8.535156-4.710938 0-8.53125-3.820312-8.53125-8.535156 0-4.710937 3.820312-8.53125 8.53125-8.53125zm0 0"/><path d="m375.464844 290.132812c14.140625 0 25.601562-11.460937 25.601562-25.597656 0-14.140625-11.460937-25.601562-25.601562-25.601562-14.136719 0-25.597656 11.460937-25.597656 25.601562 0 14.136719 11.460937 25.597656 25.597656 25.597656zm0-34.132812c4.714844 0 8.535156 3.820312 8.535156 8.535156 0 4.710938-3.820312 8.53125-8.535156 8.53125-4.710938 0-8.53125-3.820312-8.53125-8.53125 0-4.714844 3.820312-8.535156 8.53125-8.535156zm0 0"/><path d="m375.464844 358.398438c14.140625 0 25.601562-11.460938 25.601562-25.597657 0-14.140625-11.460937-25.601562-25.601562-25.601562-14.136719 0-25.597656 11.460937-25.597656 25.601562 0 14.136719 11.460937 25.597657 25.597656 25.597657zm0-34.132813c4.714844 0 8.535156 3.820313 8.535156 8.535156 0 4.710938-3.820312 8.53125-8.535156 8.53125-4.710938 0-8.53125-3.820312-8.53125-8.53125 0-4.714843 3.820312-8.535156 8.53125-8.535156zm0 0"/></svg>